# xmcd
#
# Track frame offsets:
#  183
#  8105
#  23318
#  33890
#  49198
#  65903
#  75583
#  93358
#  106910
#  124983
#  139443
#  158828
#  168675
#  182910
#  197018
#
# Disc length: 2806 seconds
#
# Revision: 5
# Processed by: cddbd v1.5.1PL2 Copyright (c) Steve Scherf et al.
# Submitted via: Collectorz.com_Music_Collector 6.11
#
DISCID=c60af40f
DTITLE=Lightnin' Hopkins - Lightnin' Strikes Back
DYEAR=1990
DGENRE=Blues
TTITLE0=Introduction
TTITLE1=Big Car Blues
TTITLE2=Coffee House Blues
TTITLE3=Stool Pidgeon Blues
TTITLE4=Ball Of Twine
TTITLE5=Mary Lou
TTITLE6=Want To Come Home
TTITLE7=Rolling And Rolling
TTITLE8=Devil Is Watching You
TTITLE9=Please Don't Quit Me
TTITLE10=Coon Is Hard To Catch
TTITLE11=Heavy Snow
TTITLE12=Walking Round In Circles
TTITLE13=War Is Starting Again
TTITLE14=Got Me A Louisiana Woman
EXTD=
EXTT0=
EXTT1=
EXTT2=
EXTT3=
EXTT4=
EXTT5=
EXTT6=
EXTT7=
EXTT8=
EXTT9=
EXTT10=
EXTT11=
EXTT12=
EXTT13=
EXTT14=
PLAYORDER=
